<!-- <svg xmlns="http://www.w3.org/2000/svg" viewBox="0 0 20 20" fill="currentColor" aria-hidden="true"><path d="M10.75 2.75a.75.75 0 00-1.5 0v8.614L6.295 8.235a.75.75 0 10-1.09 1.03l4.25 4.5a.75.75 0 001.09 0l4.25-4.5a.75.75 0 00-1.09-1.03l-2.955 3.129V2.75z"></path><path d="M3.5 12.75a.75.75 0 00-1.5 0v2.5A2.75 2.75 0 004.75 18h10.5A2.75 2.75 0 0018 15.25v-2.5a.75.75 0 00-1.5 0v2.5c0 .69-.56 1.25-1.25 1.25H4.75c-.69 0-1.25-.56-1.25-1.25v-2.5z"></path></svg> -->

<!-- <svg aria-hidden="true" viewBox="0 0 24 24" fill="none" xmlns="http://www.w3.org/2000/svg">
<path fill-rule="evenodd" clip-rule="evenodd" d="M2 12C2 7.28595 2 4.92893 3.46447 3.46447C4.92893 2 7.28595 2 12 2C16.714 2 19.0711 2 20.5355 3.46447C22 4.92893 22 7.28595 22 12C22 16.714 22 19.0711 20.5355 20.5355C19.0711 22 16.714 22 12 22C7.28595 22 4.92893 22 3.46447 20.5355C2 19.0711 2 16.714 2 12ZM12 6.25C12.4142 6.25 12.75 6.58579 12.75 7V12.1893L14.4697 10.4697C14.7626 10.1768 15.2374 10.1768 15.5303 10.4697C15.8232 10.7626 15.8232 11.2374 15.5303 11.5303L12.5303 14.5303C12.3897 14.671 12.1989 14.75 12 14.75C11.8011 14.75 11.6103 14.671 11.4697 14.5303L8.46967 11.5303C8.17678 11.2374 8.17678 10.7626 8.46967 10.4697C8.76256 10.1768 9.23744 10.1768 9.53033 10.4697L11.25 12.1893V7C11.25 6.58579 11.5858 6.25 12 6.25ZM8 16.25C7.58579 16.25 7.25 16.5858 7.25 17C7.25 17.4142 7.58579 17.75 8 17.75H16C16.4142 17.75 16.75 17.4142 16.75 17C16.75 16.5858 16.4142 16.25 16 16.25H8Z" fill="currentColor"/>
</svg> -->

<svg aria-hidden="true" viewBox="0 0 24 24" fill="none" xmlns="http://www.w3.org/2000/svg">
<path fill-rule="evenodd" clip-rule="evenodd" d="M12 1.25C11.5858 1.25 11.25 1.58579 11.25 2V12.9726L9.56944 11.0119C9.29988 10.6974 8.8264 10.661 8.51191 10.9306C8.19741 11.2001 8.16099 11.6736 8.43056 11.9881L11.4306 15.4881C11.573 15.6543 11.7811 15.75 12 15.75C12.2189 15.75 12.427 15.6543 12.5694 15.4881L15.5694 11.9881C15.839 11.6736 15.8026 11.2001 15.4881 10.9306C15.1736 10.661 14.7001 10.6974 14.4306 11.0119L12.75 12.9726L12.75 2C12.75 1.58579 12.4142 1.25 12 1.25Z" fill="currentColor"/>
<path d="M14.25 9V9.37828C14.9836 9.11973 15.8312 9.2491 16.4642 9.79167C17.4077 10.6004 17.517 12.0208 16.7083 12.9643L13.7083 16.4643C13.2808 16.963 12.6568 17.25 12 17.25C11.3431 17.25 10.7191 16.963 10.2916 16.4643L7.29163 12.9643C6.48293 12.0208 6.5922 10.6004 7.53568 9.79167C8.16868 9.2491 9.01637 9.11973 9.74996 9.37828V9H8C5.17157 9 3.75736 9 2.87868 9.87868C2 10.7574 2 12.1716 2 15V16C2 18.8284 2 20.2426 2.87868 21.1213C3.75736 22 5.17157 22 7.99999 22H16C18.8284 22 20.2426 22 21.1213 21.1213C22 20.2426 22 18.8284 22 16V15C22 12.1716 22 10.7574 21.1213 9.87868C20.2426 9 18.8284 9 16 9H14.25Z" fill="currentColor"/>
</svg>